<svg width="92" height="84" viewBox="0 0 92 84" fill="none" xmlns="http://www.w3.org/2000/svg">
<line y1="83.2517" x2="92" y2="83.2517" stroke="black" stroke-opacity="0.08"/>
<path d="M8.86 50.4099C8.72 50.4099 8.6 50.3649 8.5 50.2749C8.41 50.1849 8.365 50.0749 8.365 49.9449V40.2999C8.365 40.1699 8.41 40.0599 8.5 39.9699C8.6 39.8799 8.72 39.8349 8.86 39.8349H11.77C13.44 39.8349 14.73 40.2899 15.64 41.1999C16.56 42.1099 17.02 43.4149 17.02 45.1149C17.02 46.8149 16.56 48.1249 15.64 49.0449C14.73 49.9549 13.44 50.4099 11.77 50.4099H8.86ZM11.725 49.5999C14.605 49.5999 16.045 48.1049 16.045 45.1149C16.045 42.1349 14.605 40.6449 11.725 40.6449H9.295V49.5999H11.725ZM23.2517 42.9549C24.1317 42.9549 24.7867 43.1849 25.2167 43.6449C25.6567 44.1049 25.8767 44.7999 25.8767 45.7299V50.0049C25.8767 50.1449 25.8367 50.2599 25.7567 50.3499C25.6767 50.4299 25.5667 50.4699 25.4267 50.4699C25.2867 50.4699 25.1767 50.4299 25.0967 50.3499C25.0167 50.2599 24.9767 50.1449 24.9767 50.0049V49.1049C24.7667 49.5549 24.4617 49.9049 24.0617 50.1549C23.6617 50.3949 23.2017 50.5149 22.6817 50.5149C22.2117 50.5149 21.7817 50.4199 21.3917 50.2299C21.0117 50.0399 20.7067 49.7799 20.4767 49.4499C20.2467 49.1199 20.1317 48.7499 20.1317 48.3399C20.1217 47.7899 20.2567 47.3649 20.5367 47.0649C20.8167 46.7549 21.2817 46.5349 21.9317 46.4049C22.5817 46.2749 23.4917 46.2099 24.6617 46.2099H24.9767V45.6549C24.9767 44.9949 24.8417 44.5149 24.5717 44.2149C24.3017 43.9049 23.8767 43.7499 23.2967 43.7499C22.5567 43.7499 21.8517 43.9449 21.1817 44.3349C21.1517 44.3549 21.0717 44.4099 20.9417 44.4999C20.8217 44.5799 20.7167 44.6199 20.6267 44.6199C20.5267 44.6199 20.4417 44.5849 20.3717 44.5149C20.3117 44.4349 20.2817 44.3399 20.2817 44.2299C20.2817 44.0099 20.4567 43.7949 20.8067 43.5849C21.1567 43.3849 21.5467 43.2299 21.9767 43.1199C22.4067 43.0099 22.8317 42.9549 23.2517 42.9549ZM22.7567 49.7199C23.4067 49.7199 23.9367 49.4999 24.3467 49.0599C24.7667 48.6199 24.9767 48.0599 24.9767 47.3799V46.8849H24.6917C23.7317 46.8849 22.9967 46.9249 22.4867 47.0049C21.9767 47.0849 21.6167 47.2249 21.4067 47.4249C21.1967 47.6149 21.0917 47.8949 21.0917 48.2649C21.0917 48.6849 21.2517 49.0349 21.5717 49.3149C21.8917 49.5849 22.2867 49.7199 22.7567 49.7199ZM31.8222 50.5149C31.4022 50.5149 30.9872 50.4599 30.5772 50.3499C30.1772 50.2299 29.8222 50.0699 29.5122 49.8699C29.3222 49.7399 29.1872 49.6299 29.1072 49.5399C29.0372 49.4399 29.0022 49.3299 29.0022 49.2099C29.0022 49.1099 29.0322 49.0249 29.0922 48.9549C29.1622 48.8849 29.2422 48.8499 29.3322 48.8499C29.4222 48.8499 29.5772 48.9249 29.7972 49.0749C30.0872 49.2649 30.3822 49.4199 30.6822 49.5399C30.9922 49.6599 31.3772 49.7199 31.8372 49.7199C32.4272 49.7199 32.8872 49.6149 33.2172 49.4049C33.5472 49.1849 33.7122 48.8749 33.7122 48.4749C33.7122 48.2349 33.6522 48.0399 33.5322 47.8899C33.4122 47.7299 33.2122 47.5949 32.9322 47.4849C32.6522 47.3649 32.2522 47.2499 31.7322 47.1399C30.8422 46.9399 30.2072 46.6849 29.8272 46.3749C29.4572 46.0549 29.2722 45.6299 29.2722 45.0999C29.2722 44.4599 29.5222 43.9449 30.0222 43.5549C30.5222 43.1549 31.1722 42.9549 31.9722 42.9549C32.3622 42.9549 32.7322 43.0049 33.0822 43.1049C33.4422 43.2049 33.7522 43.3499 34.0122 43.5399C34.3622 43.7799 34.5372 44.0149 34.5372 44.2449C34.5372 44.3449 34.5022 44.4349 34.4322 44.5149C34.3722 44.5849 34.2972 44.6199 34.2072 44.6199C34.1072 44.6199 33.9522 44.5399 33.7422 44.3799C33.4722 44.1899 33.2022 44.0399 32.9322 43.9299C32.6722 43.8099 32.3372 43.7499 31.9272 43.7499C31.4072 43.7499 30.9922 43.8699 30.6822 44.1099C30.3722 44.3399 30.2172 44.6549 30.2172 45.0549C30.2172 45.2849 30.2672 45.4749 30.3672 45.6249C30.4772 45.7749 30.6572 45.9099 30.9072 46.0299C31.1672 46.1399 31.5372 46.2499 32.0172 46.3599C32.7072 46.5199 33.2372 46.6899 33.6072 46.8699C33.9772 47.0499 34.2422 47.2649 34.4022 47.5149C34.5622 47.7649 34.6422 48.0849 34.6422 48.4749C34.6422 49.0849 34.3822 49.5799 33.8622 49.9599C33.3522 50.3299 32.6722 50.5149 31.8222 50.5149ZM41.2353 42.9549C42.9853 42.9549 43.8603 43.8949 43.8603 45.7749V50.0199C43.8603 50.1599 43.8203 50.2749 43.7403 50.3649C43.6603 50.4449 43.5503 50.4849 43.4103 50.4849C43.2703 50.4849 43.1553 50.4449 43.0653 50.3649C42.9853 50.2749 42.9453 50.1599 42.9453 50.0199V45.8349C42.9453 45.1149 42.8003 44.5899 42.5103 44.2599C42.2203 43.9299 41.7603 43.7649 41.1303 43.7649C40.4103 43.7649 39.8303 43.9849 39.3903 44.4249C38.9603 44.8649 38.7453 45.4549 38.7453 46.1949V50.0199C38.7453 50.1599 38.7053 50.2749 38.6253 50.3649C38.5453 50.4449 38.4353 50.4849 38.2953 50.4849C38.1553 50.4849 38.0403 50.4449 37.9503 50.3649C37.8703 50.2749 37.8303 50.1599 37.8303 50.0199V40.2249C37.8303 40.0849 37.8703 39.9749 37.9503 39.8949C38.0403 39.8049 38.1553 39.7599 38.2953 39.7599C38.4353 39.7599 38.5453 39.8049 38.6253 39.8949C38.7053 39.9749 38.7453 40.0849 38.7453 40.2249V44.3499C38.9753 43.8999 39.3053 43.5549 39.7353 43.3149C40.1753 43.0749 40.6753 42.9549 41.2353 42.9549ZM50.8585 42.9549C51.4985 42.9549 52.0635 43.1099 52.5535 43.4199C53.0435 43.7299 53.4235 44.1699 53.6935 44.7399C53.9635 45.2999 54.0985 45.9549 54.0985 46.7049C54.0985 47.4649 53.9635 48.1349 53.6935 48.7149C53.4235 49.2849 53.0435 49.7299 52.5535 50.0499C52.0635 50.3599 51.4985 50.5149 50.8585 50.5149C50.2685 50.5149 49.7585 50.3899 49.3285 50.1399C48.8985 49.8799 48.5735 49.5049 48.3535 49.0149V50.0049C48.3535 50.1449 48.3135 50.2599 48.2335 50.3499C48.1535 50.4299 48.0435 50.4699 47.9035 50.4699C47.7635 50.4699 47.6485 50.4299 47.5585 50.3499C47.4785 50.2599 47.4385 50.1449 47.4385 50.0049V40.2249C47.4385 40.0849 47.4785 39.9749 47.5585 39.8949C47.6485 39.8049 47.7635 39.7599 47.9035 39.7599C48.0435 39.7599 48.1535 39.8049 48.2335 39.8949C48.3135 39.9749 48.3535 40.0849 48.3535 40.2249V44.4549C48.5735 43.9649 48.8985 43.5949 49.3285 43.3449C49.7585 43.0849 50.2685 42.9549 50.8585 42.9549ZM50.7385 49.7049C51.4985 49.7049 52.0885 49.4399 52.5085 48.9099C52.9385 48.3799 53.1535 47.6449 53.1535 46.7049C53.1535 45.7649 52.9385 45.0399 52.5085 44.5299C52.0885 44.0099 51.4935 43.7499 50.7235 43.7499C49.9635 43.7499 49.3785 44.0099 48.9685 44.5299C48.5585 45.0499 48.3535 45.7849 48.3535 46.7349C48.3535 47.6849 48.5585 48.4199 48.9685 48.9399C49.3885 49.4499 49.9785 49.7049 50.7385 49.7049ZM60.1321 50.5149C59.4621 50.5149 58.8721 50.3599 58.3621 50.0499C57.8621 49.7399 57.4721 49.2999 57.1921 48.7299C56.9121 48.1599 56.7721 47.4949 56.7721 46.7349C56.7721 45.9749 56.9121 45.3099 57.1921 44.7399C57.4721 44.1699 57.8621 43.7299 58.3621 43.4199C58.8721 43.1099 59.4621 42.9549 60.1321 42.9549C60.7921 42.9549 61.3771 43.1099 61.8871 43.4199C62.3971 43.7299 62.7871 44.1699 63.0571 44.7399C63.3371 45.3099 63.4771 45.9749 63.4771 46.7349C63.4771 47.4949 63.3371 48.1599 63.0571 48.7299C62.7871 49.2999 62.3971 49.7399 61.8871 50.0499C61.3771 50.3599 60.7921 50.5149 60.1321 50.5149ZM60.1171 49.7049C60.8871 49.7049 61.4821 49.4499 61.9021 48.9399C62.3221 48.4299 62.5321 47.6949 62.5321 46.7349C62.5321 45.7949 62.3171 45.0649 61.8871 44.5449C61.4671 44.0149 60.8821 43.7499 60.1321 43.7499C59.3721 43.7499 58.7821 44.0149 58.3621 44.5449C57.9421 45.0649 57.7321 45.7949 57.7321 46.7349C57.7321 47.6949 57.9371 48.4299 58.3471 48.9399C58.7571 49.4499 59.3471 49.7049 60.1171 49.7049ZM69.4909 42.9549C70.3709 42.9549 71.0259 43.1849 71.4559 43.6449C71.8959 44.1049 72.1159 44.7999 72.1159 45.7299V50.0049C72.1159 50.1449 72.0759 50.2599 71.9959 50.3499C71.9159 50.4299 71.8059 50.4699 71.6659 50.4699C71.5259 50.4699 71.4159 50.4299 71.3359 50.3499C71.2559 50.2599 71.2159 50.1449 71.2159 50.0049V49.1049C71.0059 49.5549 70.7009 49.9049 70.3009 50.1549C69.9009 50.3949 69.4409 50.5149 68.9209 50.5149C68.4509 50.5149 68.0209 50.4199 67.6309 50.2299C67.2509 50.0399 66.9459 49.7799 66.7159 49.4499C66.4859 49.1199 66.3709 48.7499 66.3709 48.3399C66.3609 47.7899 66.4959 47.3649 66.7759 47.0649C67.0559 46.7549 67.5209 46.5349 68.1709 46.4049C68.8209 46.2749 69.7309 46.2099 70.9009 46.2099H71.2159V45.6549C71.2159 44.9949 71.0809 44.5149 70.8109 44.2149C70.5409 43.9049 70.1159 43.7499 69.5359 43.7499C68.7959 43.7499 68.0909 43.9449 67.4209 44.3349C67.3909 44.3549 67.3109 44.4099 67.1809 44.4999C67.0609 44.5799 66.9559 44.6199 66.8659 44.6199C66.7659 44.6199 66.6809 44.5849 66.6109 44.5149C66.5509 44.4349 66.5209 44.3399 66.5209 44.2299C66.5209 44.0099 66.6959 43.7949 67.0459 43.5849C67.3959 43.3849 67.7859 43.2299 68.2159 43.1199C68.6459 43.0099 69.0709 42.9549 69.4909 42.9549ZM68.9959 49.7199C69.6459 49.7199 70.1759 49.4999 70.5859 49.0599C71.0059 48.6199 71.2159 48.0599 71.2159 47.3799V46.8849H70.9309C69.9709 46.8849 69.2359 46.9249 68.7259 47.0049C68.2159 47.0849 67.8559 47.2249 67.6459 47.4249C67.4359 47.6149 67.3309 47.8949 67.3309 48.2649C67.3309 48.6849 67.4909 49.0349 67.8109 49.3149C68.1309 49.5849 68.5259 49.7199 68.9959 49.7199ZM79.0964 42.9849C79.2864 42.9749 79.4214 42.9999 79.5014 43.0599C79.5814 43.1199 79.6214 43.2199 79.6214 43.3599C79.6214 43.6099 79.4714 43.7499 79.1714 43.7799L78.7214 43.8249C78.0114 43.8949 77.4814 44.1499 77.1314 44.5899C76.7914 45.0299 76.6214 45.5449 76.6214 46.1349V50.0199C76.6214 50.1699 76.5814 50.2849 76.5014 50.3649C76.4214 50.4449 76.3114 50.4849 76.1714 50.4849C76.0314 50.4849 75.9164 50.4449 75.8264 50.3649C75.7464 50.2849 75.7064 50.1699 75.7064 50.0199V43.4499C75.7064 43.2999 75.7464 43.1849 75.8264 43.1049C75.9164 43.0249 76.0314 42.9849 76.1714 42.9849C76.3014 42.9849 76.4064 43.0249 76.4864 43.1049C76.5664 43.1849 76.6064 43.2949 76.6064 43.4349V44.4099C77.0164 43.5499 77.7764 43.0799 78.8864 42.9999L79.0964 42.9849ZM87.573 39.7599C87.713 39.7599 87.823 39.8049 87.903 39.8949C87.993 39.9749 88.038 40.0849 88.038 40.2249V50.0049C88.038 50.1449 87.993 50.2599 87.903 50.3499C87.823 50.4299 87.713 50.4699 87.573 50.4699C87.433 50.4699 87.323 50.4299 87.243 50.3499C87.163 50.2599 87.123 50.1449 87.123 50.0049V49.0149C86.903 49.5049 86.578 49.8799 86.148 50.1399C85.718 50.3899 85.208 50.5149 84.618 50.5149C83.978 50.5149 83.413 50.3599 82.923 50.0499C82.433 49.7299 82.053 49.2849 81.783 48.7149C81.513 48.1349 81.378 47.4649 81.378 46.7049C81.378 45.9549 81.513 45.2999 81.783 44.7399C82.053 44.1699 82.433 43.7299 82.923 43.4199C83.413 43.1099 83.978 42.9549 84.618 42.9549C85.208 42.9549 85.718 43.0849 86.148 43.3449C86.578 43.5949 86.903 43.9649 87.123 44.4549V40.2249C87.123 40.0849 87.163 39.9749 87.243 39.8949C87.323 39.8049 87.433 39.7599 87.573 39.7599ZM84.738 49.7049C85.498 49.7049 86.083 49.4499 86.493 48.9399C86.913 48.4199 87.123 47.6849 87.123 46.7349C87.123 45.7849 86.918 45.0499 86.508 44.5299C86.098 44.0099 85.513 43.7499 84.753 43.7499C83.983 43.7499 83.388 44.0099 82.968 44.5299C82.548 45.0399 82.338 45.7649 82.338 46.7049C82.338 47.6549 82.548 48.3949 82.968 48.9249C83.388 49.4449 83.978 49.7049 84.738 49.7049Z" fill="#A5A5A5"/>
<path d="M48.5 6.0354H60.1667V14.8477H48.5V6.0354ZM48.5 31.0036V16.3164H60.1667V31.0036H48.5ZM35.375 31.0036V22.1913H47.0417V31.0036H35.375ZM35.375 20.7226V6.0354H47.0417V20.7226H35.375ZM36.8333 7.50412V19.2539H45.5833V7.50412H36.8333ZM49.9583 7.50412V13.379H58.7083V7.50412H49.9583ZM49.9583 17.7851V29.5349H58.7083V17.7851H49.9583ZM36.8333 23.66V29.5349H45.5833V23.66H36.8333Z" fill="#A5A5A5"/>
</svg>
